<svg width="35" height="29" viewBox="0 0 35 29" fill="none" xmlns="http://www.w3.org/2000/svg">
<g clip-path="url(#clip0_646_2532)">
<path d="M8.32609 28.0865H1.07999C0.353087 28.0865 0.0189332 27.5011 0.335692 26.7784L11.2932 1.74017C11.6099 1.01298 12.4558 0.432129 13.1836 0.432129H20.4288C21.1566 0.432129 21.4898 1.01752 21.174 1.74017L10.2156 26.7784C9.89889 27.5011 9.05299 28.0865 8.32609 28.0865Z" fill="#2F353C"/>
<path d="M21.8197 28.0865H14.5736C13.8467 28.0865 13.5126 27.5011 13.8293 26.7784L24.7877 1.74017C25.1036 1.01298 25.9495 0.432129 26.6773 0.432129H33.9215C34.6494 0.432129 34.9826 1.01752 34.6668 1.74017L23.7093 26.7784C23.3934 27.5011 22.5466 28.0865 21.8197 28.0865Z" fill="#2F353C"/>
</g>
<defs>
<clipPath id="clip0_646_2532">
<rect width="35" height="28.5185" fill="white"/>
</clipPath>
</defs>
</svg>
